<svg width="364" height="364" xmlns="http://www.w3.org/2000/svg" xmlns:xlink="http://www.w3.org/1999/xlink" xml:space="preserve" overflow="hidden"><defs><clipPath id="clip0"><path d="M974.872 398.234 1047.71 398.234 1011.59 443.272ZM907.648 370.88 926.68 370.88 1012.85 477.564 1096.64 370.88 1115.34 370.88 1115.34 508.999 907.648 508.999Z" fill-rule="evenodd" clip-rule="evenodd"/></clipPath></defs><g transform="translate(-826 -146)"><g><g><g><g><g clip-path="url(#clip0)"><path d="M685.782 582.425C685.782 549.149 728.768 522.174 781.792 522.174 834.817 522.174 877.801 549.149 877.801 582.425 877.801 615.701 834.817 642.677 781.792 642.677 728.768 642.677 685.782 615.701 685.782 582.425Z" stroke="#000000" stroke-width="15.675" stroke-linecap="butt" stroke-linejoin="miter" stroke-miterlimit="8" stroke-opacity="1" fill="none" fill-rule="evenodd" transform="matrix(1 0 0 1.00702 229.704 -146.078)"/></g><path d="M845.418 555.182 813.802 584.273 959.869 763.875 1091.39 597.553 1078.11 581.743 958.604 729.725 839.727 584.906 856.799 569.728 845.418 555.182Z" fill="#000000" fill-rule="evenodd" fill-opacity="1" transform="matrix(1 0 0 1.00233 52.9073 -286.685)"/><path d="M1034.9 540.537 967.325 540.537 967.325 444.428C967.325 439.478 963.539 435.691 958.588 435.691 953.638 435.691 949.851 439.478 949.851 444.428L949.851 470.64 882.867 470.64C867.431 486.367 853.451 500.056 853.161 499.764L882.284 528.888 949.851 528.888 949.851 668.682 967.325 668.682 967.325 598.785 1034.31 598.785C1049.74 583.058 1063.72 569.37 1064.01 569.661L1034.9 540.537Z" fill="#000000" fill-rule="nonzero" fill-opacity="1" transform="matrix(1 0 0 1.00233 52.9073 -286.685)"/></g></g></g></g></g></svg>