<svg width="323" height="324" xmlns="http://www.w3.org/2000/svg" xmlns:xlink="http://www.w3.org/1999/xlink" xml:space="preserve" overflow="hidden"><defs><clipPath id="clip0"><path d="M865.389 326.224 938.179 326.224 902.081 371.266ZM798.211 298.868 817.23 298.868 903.341 405.561 987.074 298.868 1005.76 298.868 1005.76 436.999 798.211 436.999Z" fill-rule="evenodd" clip-rule="evenodd"/></clipPath></defs><g transform="translate(-734 -114)"><g><g><g><g><g clip-path="url(#clip0)"><path d="M685.314 582.028C685.314 548.775 728.27 521.818 781.258 521.818 834.247 521.818 877.202 548.775 877.202 582.028 877.202 615.281 834.247 642.238 781.258 642.238 728.27 642.238 685.314 615.281 685.314 582.028Z" stroke="#000000" stroke-width="15.6643" stroke-linecap="butt" stroke-linejoin="miter" stroke-miterlimit="8" stroke-opacity="1" fill="none" fill-rule="evenodd" transform="matrix(1 0 0 1.00779 120.729 -218.135)"/></g><path d="M844.841 554.804 813.246 583.874 959.214 763.354 1090.65 597.145 1077.38 581.346 957.95 729.227 839.154 584.507 856.214 569.339 844.841 554.804Z" fill="#000000" fill-rule="evenodd" fill-opacity="1" transform="matrix(1 0 0 1.00311 -55.9471 -358.754)"/><path d="M1018.1 508.952C1012.72 508.952 1008.23 504.462 1008.23 499.074 1008.23 493.685 1012.72 489.195 1018.1 489.195 1023.49 489.195 1027.98 493.685 1027.98 499.074L1027.98 499.074C1027.98 504.462 1023.49 508.952 1018.1 508.952 1018.1 508.952 1018.1 508.952 1018.1 508.952ZM1018.1 475.724C1010.47 475.724 1003.29 479.541 999.016 485.827 994.755 492.114 993.857 500.196 996.551 507.381L1007.11 530.506 1016.09 549.59C1016.76 550.712 1018.1 551.161 1019 550.488 1019.45 550.263 1019.68 550.039 1019.9 549.59L1028.88 530.506 1039.44 507.381C1042.13 500.196 1041.22 492.114 1036.96 485.827 1032.92 479.541 1025.74 475.724 1018.1 475.724Z" fill="#000000" fill-rule="nonzero" fill-opacity="1" transform="matrix(1 0 0 1.00311 -55.9471 -358.754)"/><path d="M903.601 598.759C896.866 598.759 891.253 593.146 891.253 586.41 891.253 579.675 896.866 574.062 903.601 574.062 910.337 574.062 915.95 579.675 915.95 586.41 915.95 586.41 915.95 586.41 915.95 586.41 915.95 593.146 910.337 598.759 903.601 598.759 903.601 598.759 903.601 598.759 903.601 598.759L903.601 598.759ZM903.601 557.672C894.172 557.672 885.191 562.387 879.803 570.245 874.414 578.103 873.292 588.206 876.884 596.963L889.906 625.701 901.132 649.275C901.805 650.622 903.601 651.071 904.948 650.397 905.397 650.173 905.846 649.724 906.071 649.275L917.297 625.701 930.319 596.963C933.686 588.206 932.564 578.103 927.4 570.245 922.012 562.387 913.031 557.672 903.601 557.672Z" fill="#000000" fill-rule="nonzero" fill-opacity="1" transform="matrix(1 0 0 1.00311 -55.9471 -358.754)"/><path d="M935.034 650.846 929.196 650.846C926.502 650.846 924.032 650.846 921.563 650.846L921.563 637.375C923.808 637.375 926.502 637.375 929.196 637.375L935.034 637.375 935.034 650.846Z" fill="#000000" fill-rule="nonzero" fill-opacity="1" transform="matrix(1 0 0 1.00311 -55.9471 -358.754)"/><path d="M944.239 650.846 944.239 637.375C949.178 637.375 953.444 637.375 957.485 637.151L957.934 650.622C953.668 650.846 949.178 650.846 944.239 650.846Z" fill="#000000" fill-rule="nonzero" fill-opacity="1" transform="matrix(1 0 0 1.00311 -55.9471 -358.754)"/><path d="M966.915 650.173 966.241 636.702C970.956 636.477 975.446 636.253 979.263 635.804L980.61 649.275C976.569 649.724 971.854 649.948 966.915 650.173Z" fill="#000000" fill-rule="nonzero" fill-opacity="1" transform="matrix(1 0 0 1.00311 -55.9471 -358.754)"/><path d="M990.04 648.152 988.019 634.906C992.285 634.232 996.326 633.559 1000.37 632.436L1003.95 645.458C999.245 646.581 994.755 647.479 990.04 648.152Z" fill="#000000" fill-rule="nonzero" fill-opacity="1" transform="matrix(1 0 0 1.00311 -55.9471 -358.754)"/><path d="M1013.39 642.09 1008 629.742C1010.92 628.844 1013.39 626.823 1015.19 624.354L1027.09 630.865C1023.72 636.028 1019 639.845 1013.39 642.09Z" fill="#000000" fill-rule="nonzero" fill-opacity="1" transform="matrix(1 0 0 1.00311 -55.9471 -358.754)"/><path d="M1015.41 619.863C1014.96 616.945 1013.61 614.026 1011.6 612.005L1021.02 602.576C1025.29 606.841 1027.98 612.23 1028.66 618.292L1015.41 619.863Z" fill="#000000" fill-rule="nonzero" fill-opacity="1" transform="matrix(1 0 0 1.00311 -55.9471 -358.754)"/><path d="M1005.98 607.964C1002.39 606.168 998.567 604.596 994.755 603.474L998.567 590.676C1003.29 592.023 1008 593.819 1012.27 596.065L1005.98 607.964Z" fill="#000000" fill-rule="nonzero" fill-opacity="1" transform="matrix(1 0 0 1.00311 -55.9471 -358.754)"/><path d="M986.223 601.228 982.631 600.33C979.488 599.432 976.12 598.759 972.977 597.861L976.569 584.839C979.488 585.737 982.631 586.41 985.774 587.308L989.366 588.206 986.223 601.228Z" fill="#000000" fill-rule="nonzero" fill-opacity="1" transform="matrix(1 0 0 1.00311 -55.9471 -358.754)"/><path d="M963.772 594.717C958.383 592.697 953.444 589.329 949.852 584.839L960.853 577.205C962.874 579.675 965.792 581.471 968.711 582.369L963.772 594.717Z" fill="#000000" fill-rule="nonzero" fill-opacity="1" transform="matrix(1 0 0 1.00311 -55.9471 -358.754)"/><path d="M959.955 572.715 946.484 571.817C946.933 565.306 950.525 559.468 955.689 555.652L963.996 566.204C959.955 569.572 959.955 572.041 959.955 572.715Z" fill="#000000" fill-rule="nonzero" fill-opacity="1" transform="matrix(1 0 0 1.00311 -55.9471 -358.754)"/><path d="M970.283 562.836 964.894 550.488C969.384 548.467 974.099 546.896 978.814 545.773L981.957 558.795C977.916 559.918 974.099 561.265 970.283 562.836Z" fill="#000000" fill-rule="nonzero" fill-opacity="1" transform="matrix(1 0 0 1.00311 -55.9471 -358.754)"/><path d="M990.264 557.223 988.019 543.977C993.857 543.079 998.796 542.405 1001.94 542.181L1003.06 555.652C1000.81 555.876 995.877 556.325 990.264 557.223Z" fill="#000000" fill-rule="nonzero" fill-opacity="1" transform="matrix(1 0 0 1.00311 -55.9471 -358.754)"/></g></g></g></g></g></svg>